<?xml version="1.0" encoding="UTF-8" standalone="no" ?>
<!DOCTYPE svg PUBLIC "-//W3C//DTD SVG 1.1//EN" "http://www.w3.org/Graphics/SVG/1.1/DTD/svg11.dtd">
<svg xmlns="http://www.w3.org/2000/svg" xmlns:xlink="http://www.w3.org/1999/xlink" version="1.1" width="136" height="42" viewBox="0 0 136 42" xml:space="preserve">
<desc>Created with Fabric.js 4.6.0</desc>
<defs>
</defs>
<g transform="matrix(1 0 0 1 108.5 21)" id="fSLc7-D9x0-0A8Du6_6I-"  >
<g style="" vector-effect="non-scaling-stroke"   >
		<g transform="matrix(1 0 0 1 27.51 1.69)" id="LXIj2TQt0Ee_9mPH-nVAc"  >
<path style="stroke: none; stroke-width: 1; stroke-dasharray: none; stroke-linecap: butt; stroke-dashoffset: 0; stroke-linejoin: miter; stroke-miterlimit: 4; fill: rgb(153,153,153); fill-rule: nonzero; opacity: 1;" vector-effect="non-scaling-stroke"  transform=" translate(-136.01, -22.69)" d="M 66.3567 20.1715 L 60.7676 20.1715 L 60.7373 17.8238 L 65.8114 17.8238 C 66.6495 17.8238 67.3816 17.6825 68.0076 17.3997 C 68.6337 17.117 69.1184 16.7131 69.4617 16.188 C 69.8151 15.6529 69.9918 15.0167 69.9918 14.2796 C 69.9918 13.4718 69.8353 12.8154 69.5223 12.3105 C 69.2193 11.7956 68.7498 11.4219 68.1137 11.1897 C 67.4876 10.9474 66.6899 10.8262 65.7205 10.8262 L 61.4189 10.8262 L 61.4189 30.4863 L 58.4957 30.4863 L 58.4957 8.43305 L 65.7205 8.43305 C 66.8514 8.43305 67.8612 8.54917 68.7498 8.78141 C 69.6384 9.00356 70.3907 9.35698 71.0066 9.84167 C 71.6327 10.3163 72.1073 10.9221 72.4304 11.6592 C 72.7535 12.3964 72.9151 13.2799 72.9151 14.3099 C 72.9151 15.2187 72.6828 16.0416 72.2183 16.7787 C 71.7538 17.5058 71.1076 18.1015 70.2796 18.566 C 69.4617 19.0305 68.5024 19.3284 67.4018 19.4597 L 66.3567 20.1715 Z M 66.2203 30.4863 L 59.6165 30.4863 L 61.2675 28.1083 L 66.2203 28.1083 C 67.1493 28.1083 67.9369 27.9467 68.5832 27.6236 C 69.2395 27.3005 69.7394 26.8461 70.0827 26.2604 C 70.426 25.6646 70.5977 24.9629 70.5977 24.1551 C 70.5977 23.3371 70.4513 22.6303 70.1584 22.0346 C 69.8656 21.4388 69.4061 20.9793 68.7801 20.6562 C 68.154 20.3331 67.3462 20.1715 66.3567 20.1715 L 62.1914 20.1715 L 62.2217 17.8238 L 67.9167 17.8238 L 68.5378 18.672 C 69.598 18.7629 70.4967 19.0658 71.2338 19.5808 C 71.9709 20.0857 72.5314 20.732 72.9151 21.5196 C 73.3089 22.3072 73.5058 23.1756 73.5058 24.1248 C 73.5058 25.498 73.2029 26.6593 72.597 27.6084 C 72.0012 28.5475 71.1581 29.2645 70.0675 29.7592 C 68.977 30.2439 67.6946 30.4863 66.2203 30.4863 Z M 76.6562 22.4738 L 76.6562 22.1254 C 76.6562 20.944 76.8279 19.8484 77.1712 18.8387 C 77.5145 17.8188 78.0093 16.9352 78.6556 16.188 C 79.3018 15.4307 80.0844 14.845 81.0033 14.431 C 81.9222 14.0069 82.9521 13.7949 84.0931 13.7949 C 85.2443 13.7949 86.2793 14.0069 87.1982 14.431 C 88.1272 14.845 88.9148 15.4307 89.561 16.188 C 90.2174 16.9352 90.7172 17.8188 91.0605 18.8387 C 91.4038 19.8484 91.5755 20.944 91.5755 22.1254 L 91.5755 22.4738 C 91.5755 23.6552 91.4038 24.7508 91.0605 25.7606 C 90.7172 26.7703 90.2174 27.6539 89.561 28.4112 C 88.9148 29.1584 88.1322 29.7441 87.2133 30.1682 C 86.3045 30.5822 85.2746 30.7892 84.1234 30.7892 C 82.9723 30.7892 81.9373 30.5822 81.0184 30.1682 C 80.0995 29.7441 79.3119 29.1584 78.6556 28.4112 C 78.0093 27.6539 77.5145 26.7703 77.1712 25.7606 C 76.8279 24.7508 76.6562 23.6552 76.6562 22.4738 Z M 79.4583 22.1254 L 79.4583 22.4738 C 79.4583 23.2917 79.5543 24.0642 79.7461 24.7912 C 79.938 25.5081 80.2258 26.1443 80.6095 26.6997 C 81.0033 27.255 81.493 27.6943 82.0787 28.0174 C 82.6643 28.3304 83.3459 28.4869 84.1234 28.4869 C 84.8909 28.4869 85.5624 28.3304 86.1379 28.0174 C 86.7236 27.6943 87.2083 27.255 87.592 26.6997 C 87.9757 26.1443 88.2635 25.5081 88.4553 24.7912 C 88.6573 24.0642 88.7583 23.2917 88.7583 22.4738 L 88.7583 22.1254 C 88.7583 21.3176 88.6573 20.5552 88.4553 19.8383 C 88.2635 19.1113 87.9706 18.4701 87.5768 17.9147 C 87.1931 17.3493 86.7084 16.905 86.1228 16.5818 C 85.5472 16.2587 84.8707 16.0971 84.0931 16.0971 C 83.3257 16.0971 82.6492 16.2587 82.0635 16.5818 C 81.488 16.905 81.0033 17.3493 80.6095 17.9147 C 80.2258 18.4701 79.938 19.1113 79.7461 19.8383 C 79.5543 20.5552 79.4583 21.3176 79.4583 22.1254 Z M 94.3473 22.4738 L 94.3473 22.1254 C 94.3473 20.944 94.519 19.8484 94.8623 18.8387 C 95.2056 17.8188 95.7004 16.9352 96.3466 16.188 C 96.9929 15.4307 97.7754 14.845 98.6943 14.431 C 99.6132 14.0069 100.643 13.7949 101.784 13.7949 C 102.935 13.7949 103.97 14.0069 104.889 14.431 C 105.818 14.845 106.606 15.4307 107.252 16.188 C 107.908 16.9352 108.408 17.8188 108.752 18.8387 C 109.095 19.8484 109.267 20.944 109.267 22.1254 L 109.267 22.4738 C 109.267 23.6552 109.095 24.7508 108.752 25.7606 C 108.408 26.7703 107.908 27.6539 107.252 28.4112 C 106.606 29.1584 105.823 29.7441 104.904 30.1682 C 103.996 30.5822 102.966 30.7892 101.814 30.7892 C 100.663 30.7892 99.6284 30.5822 98.7095 30.1682 C 97.7906 29.7441 97.003 29.1584 96.3466 28.4112 C 95.7004 27.6539 95.2056 26.7703 94.8623 25.7606 C 94.519 24.7508 94.3473 23.6552 94.3473 22.4738 Z M 97.1494 22.1254 L 97.1494 22.4738 C 97.1494 23.2917 97.2453 24.0642 97.4372 24.7912 C 97.629 25.5081 97.9168 26.1443 98.3005 26.6997 C 98.6943 27.255 99.1841 27.6943 99.7697 28.0174 C 100.355 28.3304 101.037 28.4869 101.814 28.4869 C 102.582 28.4869 103.253 28.3304 103.829 28.0174 C 104.415 27.6943 104.899 27.255 105.283 26.6997 C 105.667 26.1443 105.955 25.5081 106.146 24.7912 C 106.348 24.0642 106.449 23.2917 106.449 22.4738 L 106.449 22.1254 C 106.449 21.3176 106.348 20.5552 106.146 19.8383 C 105.955 19.1113 105.662 18.4701 105.268 17.9147 C 104.884 17.3493 104.399 16.905 103.814 16.5818 C 103.238 16.2587 102.562 16.0971 101.784 16.0971 C 101.017 16.0971 100.34 16.2587 99.7546 16.5818 C 99.179 16.905 98.6943 17.3493 98.3005 17.9147 C 97.9168 18.4701 97.629 19.1113 97.4372 19.8383 C 97.2453 20.5552 97.1494 21.3176 97.1494 22.1254 Z M 115.567 17.3543 L 115.567 30.4863 L 112.75 30.4863 L 112.75 14.0978 L 115.416 14.0978 L 115.567 17.3543 Z M 114.992 21.671 L 113.689 21.6256 C 113.699 20.5048 113.846 19.4698 114.129 18.5206 C 114.411 17.5613 114.83 16.7282 115.386 16.0214 C 115.941 15.3146 116.633 14.7693 117.461 14.3856 C 118.289 13.9918 119.248 13.7949 120.339 13.7949 C 121.106 13.7949 121.813 13.906 122.459 14.1281 C 123.105 14.3402 123.666 14.6784 124.14 15.1429 C 124.615 15.6074 124.983 16.2032 125.246 16.9302 C 125.509 17.6572 125.64 18.5357 125.64 19.5657 L 125.64 30.4863 L 122.838 30.4863 L 122.838 19.702 C 122.838 18.8437 122.691 18.1571 122.399 17.6421 C 122.116 17.1271 121.712 16.7535 121.187 16.5212 C 120.662 16.2789 120.046 16.1577 119.339 16.1577 C 118.511 16.1577 117.819 16.3041 117.264 16.597 C 116.708 16.8898 116.264 17.2937 115.931 17.8087 C 115.598 18.3237 115.355 18.9144 115.204 19.5808 C 115.063 20.2372 114.992 20.9339 114.992 21.671 Z M 125.61 20.1261 L 123.731 20.7017 C 123.741 19.803 123.888 18.9396 124.171 18.1116 C 124.463 17.2836 124.883 16.5465 125.428 15.9002 C 125.983 15.254 126.665 14.7441 127.473 14.3705 C 128.28 13.9867 129.204 13.7949 130.244 13.7949 C 131.123 13.7949 131.9 13.911 132.577 14.1433 C 133.264 14.3755 133.839 14.734 134.304 15.2187 C 134.778 15.6932 135.137 16.3041 135.379 17.0514 C 135.621 17.7986 135.743 18.6872 135.743 19.7171 L 135.743 30.4863 L 132.925 30.4863 L 132.925 19.6869 C 132.925 18.768 132.779 18.0561 132.486 17.5512 C 132.203 17.0362 131.799 16.6778 131.274 16.4758 C 130.759 16.2638 130.143 16.1577 129.426 16.1577 C 128.811 16.1577 128.265 16.2638 127.791 16.4758 C 127.316 16.6879 126.917 16.9807 126.594 17.3543 C 126.271 17.7178 126.024 18.1369 125.852 18.6115 C 125.69 19.086 125.61 19.5909 125.61 20.1261 Z M 146.784 30.7892 C 145.643 30.7892 144.608 30.5973 143.679 30.2136 C 142.76 29.8198 141.968 29.2695 141.301 28.5627 C 140.645 27.8558 140.14 27.0177 139.787 26.0484 C 139.433 25.079 139.256 24.0187 139.256 22.8676 L 139.256 22.2315 C 139.256 20.8986 139.453 19.7121 139.847 18.672 C 140.241 17.6219 140.776 16.7333 141.453 16.0063 C 142.129 15.2792 142.897 14.7289 143.755 14.3553 C 144.613 13.9817 145.502 13.7949 146.421 13.7949 C 147.592 13.7949 148.602 13.9968 149.45 14.4007 C 150.308 14.8047 151.01 15.3701 151.555 16.0971 C 152.101 16.8141 152.505 17.6623 152.767 18.6417 C 153.03 19.6111 153.161 20.6714 153.161 21.8225 L 153.161 23.0797 L 140.923 23.0797 L 140.923 20.7925 L 150.359 20.7925 L 150.359 20.5805 C 150.318 19.8535 150.167 19.1466 149.904 18.46 C 149.652 17.7734 149.248 17.2079 148.693 16.7636 C 148.137 16.3193 147.38 16.0971 146.421 16.0971 C 145.785 16.0971 145.199 16.2335 144.664 16.5061 C 144.129 16.7686 143.669 17.1624 143.285 17.6875 C 142.902 18.2126 142.604 18.8538 142.392 19.6111 C 142.18 20.3684 142.074 21.2419 142.074 22.2315 L 142.074 22.8676 C 142.074 23.6451 142.18 24.3772 142.392 25.0638 C 142.614 25.7404 142.932 26.3361 143.346 26.8511 C 143.77 27.3661 144.28 27.77 144.876 28.0628 C 145.482 28.3557 146.168 28.5021 146.936 28.5021 C 147.925 28.5021 148.763 28.3001 149.45 27.8962 C 150.137 27.4923 150.738 26.9521 151.252 26.2756 L 152.949 27.6236 C 152.595 28.1588 152.146 28.6687 151.601 29.1534 C 151.056 29.6381 150.384 30.0319 149.586 30.3348 C 148.799 30.6377 147.865 30.7892 146.784 30.7892 Z M 159.235 16.6727 L 159.235 30.4863 L 156.433 30.4863 L 156.433 14.0978 L 159.159 14.0978 L 159.235 16.6727 Z M 164.354 14.0069 L 164.339 16.6121 C 164.107 16.5616 163.885 16.5313 163.673 16.5212 C 163.471 16.5011 163.238 16.491 162.976 16.491 C 162.33 16.491 161.759 16.5919 161.264 16.7939 C 160.769 16.9958 160.35 17.2786 160.007 17.6421 C 159.664 18.0056 159.391 18.4398 159.189 18.9447 C 158.997 19.4395 158.871 19.9847 158.811 20.5805 L 158.023 21.0349 C 158.023 20.0453 158.119 19.1163 158.311 18.2479 C 158.513 17.3795 158.821 16.6121 159.235 15.9457 C 159.649 15.2691 160.174 14.7441 160.81 14.3705 C 161.456 13.9867 162.224 13.7949 163.112 13.7949 C 163.314 13.7949 163.546 13.8201 163.809 13.8706 C 164.071 13.911 164.253 13.9564 164.354 14.0069 Z M 176.002 27.6842 L 176.002 19.2476 C 176.002 18.6014 175.87 18.0409 175.608 17.5664 C 175.356 17.0817 174.972 16.7081 174.457 16.4455 C 173.942 16.183 173.306 16.0517 172.548 16.0517 C 171.842 16.0517 171.221 16.1729 170.685 16.4152 C 170.16 16.6576 169.746 16.9756 169.443 17.3694 C 169.151 17.7633 169.004 18.1874 169.004 18.6417 L 166.202 18.6417 C 166.202 18.0561 166.353 17.4755 166.656 16.8999 C 166.959 16.3243 167.394 15.8043 167.959 15.3398 C 168.535 14.8652 169.221 14.4916 170.019 14.219 C 170.827 13.9363 171.725 13.7949 172.715 13.7949 C 173.907 13.7949 174.957 13.9968 175.865 14.4007 C 176.784 14.8047 177.501 15.4156 178.016 16.2335 C 178.541 17.0413 178.804 18.0561 178.804 19.2779 L 178.804 26.9117 C 178.804 27.457 178.849 28.0376 178.94 28.6535 C 179.041 29.2695 179.188 29.7996 179.379 30.2439 L 179.379 30.4863 L 176.456 30.4863 C 176.315 30.1631 176.204 29.734 176.123 29.1988 C 176.042 28.6535 176.002 28.1487 176.002 27.6842 Z M 176.486 20.5502 L 176.517 22.5192 L 173.684 22.5192 C 172.887 22.5192 172.175 22.5849 171.549 22.7161 C 170.923 22.8373 170.398 23.0241 169.973 23.2766 C 169.549 23.529 169.226 23.8471 169.004 24.2308 C 168.782 24.6044 168.671 25.0436 168.671 25.5485 C 168.671 26.0635 168.787 26.533 169.019 26.9571 C 169.251 27.3812 169.6 27.7195 170.064 27.972 C 170.539 28.2143 171.12 28.3355 171.806 28.3355 C 172.664 28.3355 173.422 28.1537 174.078 27.7902 C 174.735 27.4267 175.255 26.9824 175.638 26.4573 C 176.032 25.9322 176.244 25.4223 176.274 24.9275 L 177.471 26.2756 C 177.4 26.6997 177.208 27.1692 176.895 27.6842 C 176.582 28.1992 176.163 28.6939 175.638 29.1685 C 175.123 29.633 174.507 30.0218 173.79 30.3348 C 173.084 30.6377 172.286 30.7892 171.397 30.7892 C 170.287 30.7892 169.312 30.5721 168.474 30.1379 C 167.646 29.7037 167 29.1231 166.535 28.3961 C 166.081 27.6589 165.854 26.836 165.854 25.9272 C 165.854 25.0487 166.025 24.2762 166.369 23.6098 C 166.712 22.9332 167.207 22.3728 167.853 21.9285 C 168.499 21.4741 169.277 21.1308 170.186 20.8986 C 171.094 20.6663 172.109 20.5502 173.23 20.5502 L 176.486 20.5502 Z M 186.014 17.5966 L 186.014 30.4863 L 183.211 30.4863 L 183.211 14.0978 L 185.862 14.0978 L 186.014 17.5966 Z M 185.347 21.671 L 184.181 21.6256 C 184.191 20.5048 184.358 19.4698 184.681 18.5206 C 185.004 17.5613 185.458 16.7282 186.044 16.0214 C 186.63 15.3146 187.326 14.7693 188.134 14.3856 C 188.952 13.9918 189.856 13.7949 190.845 13.7949 C 191.653 13.7949 192.38 13.906 193.026 14.1281 C 193.673 14.3402 194.223 14.6835 194.677 15.1581 C 195.142 15.6327 195.495 16.2486 195.738 17.0059 C 195.98 17.7532 196.101 18.667 196.101 19.7474 L 196.101 30.4863 L 193.284 30.4863 L 193.284 19.7171 C 193.284 18.8588 193.158 18.1722 192.905 17.6572 C 192.653 17.1322 192.284 16.7535 191.8 16.5212 C 191.315 16.2789 190.719 16.1577 190.012 16.1577 C 189.315 16.1577 188.679 16.3041 188.104 16.597 C 187.538 16.8898 187.049 17.2937 186.635 17.8087 C 186.231 18.3237 185.913 18.9144 185.68 19.5808 C 185.458 20.2372 185.347 20.9339 185.347 21.671 Z M 210.975 14.0978 L 213.519 14.0978 L 213.519 30.1379 C 213.519 31.5819 213.227 32.8138 212.641 33.8336 C 212.055 34.8535 211.237 35.626 210.187 36.151 C 209.147 36.6862 207.946 36.9538 206.582 36.9538 C 206.017 36.9538 205.351 36.8629 204.583 36.6812 C 203.826 36.5095 203.079 36.2116 202.341 35.7875 C 201.614 35.3735 201.003 34.8131 200.509 34.1063 L 201.978 32.4402 C 202.665 33.2682 203.381 33.8437 204.129 34.1669 C 204.886 34.49 205.633 34.6515 206.37 34.6515 C 207.259 34.6515 208.026 34.4849 208.673 34.1517 C 209.319 33.8185 209.819 33.3237 210.172 32.6674 C 210.536 32.0211 210.717 31.2234 210.717 30.2742 L 210.717 17.7027 L 210.975 14.0978 Z M 199.691 22.4738 L 199.691 22.1557 C 199.691 20.9036 199.837 19.7676 200.13 18.7478 C 200.433 17.7178 200.862 16.8343 201.417 16.0971 C 201.983 15.36 202.665 14.7946 203.462 14.4007 C 204.26 13.9968 205.159 13.7949 206.158 13.7949 C 207.188 13.7949 208.087 13.9766 208.854 14.3402 C 209.632 14.6936 210.288 15.2136 210.823 15.9002 C 211.369 16.5768 211.798 17.3947 212.111 18.354 C 212.424 19.3132 212.641 20.3987 212.762 21.6105 L 212.762 23.0039 C 212.651 24.2055 212.434 25.286 212.111 26.2453 C 211.798 27.2045 211.369 28.0224 210.823 28.699 C 210.288 29.3755 209.632 29.8956 208.854 30.2591 C 208.077 30.6125 207.168 30.7892 206.128 30.7892 C 205.149 30.7892 204.26 30.5822 203.462 30.1682 C 202.675 29.7542 201.998 29.1736 201.433 28.4264 C 200.867 27.6791 200.433 26.8006 200.13 25.7909 C 199.837 24.771 199.691 23.6653 199.691 22.4738 Z M 202.493 22.1557 L 202.493 22.4738 C 202.493 23.2917 202.574 24.0591 202.735 24.7761 C 202.907 25.493 203.164 26.1241 203.508 26.6694 C 203.861 27.2146 204.31 27.6438 204.856 27.9568 C 205.401 28.2597 206.052 28.4112 206.81 28.4112 C 207.739 28.4112 208.506 28.2143 209.112 27.8205 C 209.718 27.4267 210.197 26.9067 210.551 26.2604 C 210.914 25.6142 211.197 24.9124 211.399 24.1551 L 211.399 20.5048 C 211.288 19.9494 211.116 19.4142 210.884 18.8992 C 210.662 18.3742 210.369 17.9097 210.006 17.5058 C 209.652 17.0918 209.213 16.7636 208.688 16.5212 C 208.163 16.2789 207.547 16.1577 206.84 16.1577 C 206.072 16.1577 205.411 16.3193 204.856 16.6424 C 204.31 16.9554 203.861 17.3896 203.508 17.945 C 203.164 18.4903 202.907 19.1264 202.735 19.8535 C 202.574 20.5704 202.493 21.3378 202.493 22.1557 Z" stroke-linecap="round" />
</g>
		<g transform="matrix(1 0 0 1 -88.16 -0.06)" id="C-kkdppifNe2afS_pGl7A"  >
<path style="stroke: none; stroke-width: 1; stroke-dasharray: none; stroke-linecap: butt; stroke-dashoffset: 0; stroke-linejoin: miter; stroke-miterlimit: 4; fill: rgb(153,153,153); fill-rule: nonzero; opacity: 1;" vector-effect="non-scaling-stroke"  transform=" translate(-20.34, -20.94)" d="M 18.1831 18.3166 C 25.9889 13.4127 36.5204 17.0448 32.1166 25.6265 C 27.7128 34.2031 -12.5521 18.3064 3.9495 26.2065 C 20.4511 34.1065 26.8127 50.1966 33.5659 34.9866 C 40.3191 19.7765 48.4555 -13.1361 25.5719 6.86585 C 2.68837 26.8678 8.43977 24.4311 18.1831 18.3166 Z" stroke-linecap="round" />
</g>
</g>
</g>
</svg>